<svg width="15" height="16" viewBox="0 0 15 16" fill="none" xmlns="http://www.w3.org/2000/svg">
<path fill-rule="evenodd" clip-rule="evenodd" d="M12.818 2.08392C12.6246 1.91793 12.377 1.82873 12.1222 1.83323L12.1134 1.83339L10.8334 1.83331V8.16664H12.1222C12.377 8.17115 12.6246 8.08202 12.818 7.91603C13.0036 7.75665 13.1269 7.53714 13.1667 7.29634V2.70361C13.1269 2.46282 13.0036 2.2433 12.818 2.08392ZM9.83335 8.56053L7.35619 14.1342C7.07417 14.0745 6.81297 13.9343 6.60603 13.7273C6.32472 13.446 6.16669 13.0645 6.16669 12.6666V9.99998C6.16669 9.72383 5.94283 9.49998 5.66669 9.49998H1.89335L1.88769 9.50001C1.7669 9.50138 1.64725 9.47646 1.53704 9.427C1.42683 9.37754 1.32869 9.3047 1.24942 9.21354C1.17015 9.12239 1.11165 9.01508 1.07797 8.89907C1.04432 8.78317 1.03625 8.66134 1.05431 8.54201C1.05429 8.54213 1.05432 8.5419 1.05431 8.54201L1.97437 2.54161C2.0045 2.3429 2.10544 2.16177 2.25857 2.03161C2.41171 1.90144 2.60673 1.83101 2.8077 1.83328L9.83335 1.83331V8.56053ZM12.1092 0.83331C12.6074 0.825654 13.0912 1.00056 13.4693 1.32512C13.8486 1.65071 14.0952 2.10425 14.1622 2.59962C14.1652 2.62184 14.1667 2.64423 14.1667 2.66664V7.33331C14.1667 7.35573 14.1652 7.37812 14.1622 7.40033C14.0952 7.89571 13.8486 8.34924 13.4693 8.67483C13.0912 8.99939 12.6074 9.1743 12.1092 9.16664H10.6583L8.12359 14.8697C8.04334 15.0503 7.86428 15.1666 7.66669 15.1666C7.00365 15.1666 6.36776 14.9033 5.89892 14.4344C5.43008 13.9656 5.16669 13.3297 5.16669 12.6666V10.5H1.89599C1.63127 10.5025 1.36912 10.4477 1.12757 10.3393C0.885109 10.2305 0.669202 10.0703 0.494812 9.86972C0.320422 9.66917 0.191719 9.43311 0.117621 9.17788C0.0435225 8.92265 0.0258001 8.65437 0.0656821 8.39161L0.985672 2.39168C0.98565 2.39182 0.985695 2.39153 0.985672 2.39168C1.05205 1.95468 1.27414 1.55594 1.61093 1.26967C1.94705 0.983962 2.3749 0.829057 2.81596 0.83331H12.1092Z" fill="#818181"/>
</svg>
